<svg width="250.00000000000003" height="375" xmlns="http://www.w3.org/2000/svg">

 <g>
  <title>background</title>
  <rect fill="#e5e5e5" id="canvas_background" height="377" width="252" y="-1" x="-1"/>
 </g>
 <g>
  <title>Layer 1</title>
  <g id="svg_6"/>
  <g id="svg_7"/>
  <g id="svg_8"/>
  <g id="svg_9"/>
  <g id="svg_10"/>
  <g id="svg_11"/>
  <g id="svg_12"/>
  <g id="svg_13"/>
  <g id="svg_14"/>
  <g id="svg_15"/>
  <g id="svg_16"/>
  <g id="svg_17"/>
  <g id="svg_18"/>
  <g id="svg_19"/>
  <g id="svg_20"/>
  <g stroke="null" id="svg_24">
   <path stroke="null" id="svg_1" fill="#1B4145" d="m169.95707,234.071643c-8.196065,0 -14.863891,-6.667825 -14.863891,-14.863891l0,-9.595757c0,-0.841921 0.682325,-1.523882 1.523882,-1.523882c0.841558,0 1.523882,0.682143 1.523882,1.523882l0,9.595757c0,6.51531 5.300634,11.815944 11.815944,11.815944c0.841558,0 1.523882,0.682143 1.523882,1.523882c0.000182,0.841921 -0.682143,1.524064 -1.523701,1.524064z"/>
   <circle stroke="null" id="svg_2" fill="#8B7E7F" r="40.389153" cy="186.828745" cx="124.238055"/>
   <circle stroke="null" id="svg_3" fill="#1B4145" r="26.165457" cy="186.828745" cx="124.238055"/>
   <circle stroke="null" id="svg_5" fill="#8B7E7F" r="6.400558" cy="186.828745" cx="124.238055"/>
   <path stroke="null" id="svg_4" fill="#C2B8B9" d="m124.238056,140.928345c-25.249822,0 -45.718833,20.469011 -45.718833,45.718833s20.469011,45.718833 45.718833,45.718833s45.719015,-20.469011 45.719015,-45.718833s-20.469193,-45.718833 -45.719015,-45.718833zm-36.089487,33.992764c2.028636,-6.243688 8.734771,-9.660576 14.978277,-7.63194c6.243506,2.028636 9.660576,8.734771 7.631759,14.978459s-8.734771,9.660576 -14.978277,7.63194c-6.243506,-2.028817 -9.660394,-8.734771 -7.631759,-14.978459zm30.388681,39.795973c-3.85882,5.311347 -11.29249,6.48862 -16.603655,2.6298c-5.311165,-3.858638 -6.48862,-11.29249 -2.6298,-16.603655c3.85882,-5.311347 11.29249,-6.48862 16.603655,-2.6298c5.311165,3.85882 6.48862,11.29249 2.6298,16.603655zm-6.186131,-54.129691c0,-6.565059 5.321878,-11.886937 11.886937,-11.886937s11.886937,5.321878 11.886937,11.886937s-5.321878,11.886937 -11.886937,11.886937s-11.886937,-5.321878 -11.886937,-11.886937zm34.191579,56.75931c-5.311165,3.858638 -12.744835,2.681365 -16.603655,-2.6298c-3.85882,-5.311165 -2.681365,-12.744835 2.6298,-16.603655c5.311165,-3.858638 12.744835,-2.681365 16.603655,2.6298c3.858638,5.311165 2.681183,12.745017 -2.6298,16.603655zm6.152905,-27.447133c-6.243506,2.028454 -12.949642,-1.388253 -14.978277,-7.63194s1.388253,-12.949642 7.631759,-14.978459c6.243506,-2.028454 12.949642,1.388253 14.978277,7.63194c2.028636,6.243688 -1.388071,12.949642 -7.631759,14.978459z"/>
  </g>
 </g>
</svg>