<svg width="200" height="200" xmlns="http://www.w3.org/2000/svg">

 <g>
  <title>background</title>
  <rect fill="none" id="canvas_background" height="202" width="202" y="-1" x="-1"/>
 </g>
 <g>
  <title>Layer 1</title>
  <g stroke="null" id="svg_1">
   <rect fill="#00bcd4" stroke="null" id="svg_2" height="93.076834" width="159.861545" y="101.042044" x="23.151492"/>
   <polygon fill="#00bcd4" stroke="null" id="svg_3" points="55.65800476074219,94.0645055770874 55.34779357910156,94.52461910247803 81.55043029785156,94.52461910247803 81.86060333251953,94.0645055770874 98.39476013183594,69.52992916107178 72.1921615600586,69.52992916107178 "/>
   <polygon fill="#00bcd4" stroke="null" id="svg_4" points="107.51460266113281,94.0645055770874 107.20459747314453,94.52461910247803 133.40721130371094,94.52461910247803 133.71737670898438,94.0645055770874 150.25157165527344,69.52992916107178 124.04893493652344,69.52992916107178 "/>
   <polygon fill="#00bcd4" stroke="null" id="svg_5" points="23.151288986206055,94.52461910247803 29.693832397460938,94.52461910247803 30.003829956054688,94.0645055770874 46.5379753112793,69.52992916107178 23.151288986206055,69.52992916107178 23.151288986206055,94.0645055770874 "/>
   <polygon fill="#00bcd4" stroke="null" id="svg_6" points="159.0614013671875,94.52461910247803 183.0128173828125,94.52461910247803 183.0128173828125,94.0645055770874 183.0128173828125,69.52992916107178 175.90574645996094,69.52992916107178 159.3713836669922,94.0645055770874 "/>
   <polygon fill="#00bcd4" stroke="null" id="svg_7" points="48.18885803222656,37.36672115325928 70.67744445800781,57.43508052825928 96.07066345214844,50.97289180755615 73.5822525024414,30.904318809509277 "/>
   <polygon fill="#00bcd4" stroke="null" id="svg_8" points="98.44380187988281,24.577506065368652 120.93216705322266,44.64586544036865 146.3256072998047,38.18367671966553 123.83720397949219,18.11513614654541 "/>
   <polygon fill="#00bcd4" stroke="null" id="svg_9" points="148.69873046875,11.788291931152344 171.1871337890625,31.856680870056152 178.07493591308594,30.103903770446777 171.9105682373047,5.881126403808594 "/>
   <polygon fill="#00bcd4" stroke="null" id="svg_10" points="23.327316284179688,43.69374752044678 16.986953735351562,45.30715084075928 23.151288986206055,69.52992916107178 45.81568908691406,63.76210689544678 "/>
  </g>
  <g id="svg_11"/>
  <g id="svg_12"/>
  <g id="svg_13"/>
  <g id="svg_14"/>
  <g id="svg_15"/>
  <g id="svg_16"/>
  <g id="svg_17"/>
  <g id="svg_18"/>
  <g id="svg_19"/>
  <g id="svg_20"/>
  <g id="svg_21"/>
  <g id="svg_22"/>
  <g id="svg_23"/>
  <g id="svg_24"/>
  <g id="svg_25"/>
  <g stroke="null" id="svg_47">
   <g stroke="null" transform="matrix(2.2718683169766685,0,0,2.2718683169766685,21.535573110420103,20.699616937749624) " id="svg_30">
    <path stroke="null" fill="#ffffff" id="svg_31" d="m35.580114,40.354239c5.424,0 10.764,2.498 10.764,8.473c0,5.51 -6.314,7.629 -7.67,9.62c-1.018,1.481 -0.678,3.562 -3.475,3.562c-1.822,0 -2.712,-1.482 -2.712,-2.838c0,-5.046 7.414,-6.188 7.414,-10.343c0,-2.287 -1.522,-3.643 -4.066,-3.643c-5.424,0 -3.306,5.592 -7.414,5.592c-1.483,0 -2.756,-0.89 -2.756,-2.584c-0.001,-4.156 4.744,-7.839 9.915,-7.839zm-0.211,24.406c1.904,0 3.475,1.566 3.475,3.476c0,1.91 -1.568,3.476 -3.475,3.476c-1.907,0 -3.476,-1.564 -3.476,-3.476c0,-1.909 1.569,-3.476 3.476,-3.476z"/>
   </g>
   <g stroke="null" transform="matrix(2.2718683169766685,0,0,2.2718683169766685,21.535573110420103,20.699616937749624) " id="svg_32"/>
   <g stroke="null" transform="matrix(2.2718683169766685,0,0,2.2718683169766685,21.535573110420103,20.699616937749624) " id="svg_33"/>
   <g stroke="null" transform="matrix(2.2718683169766685,0,0,2.2718683169766685,21.535573110420103,20.699616937749624) " id="svg_34"/>
   <g stroke="null" transform="matrix(2.2718683169766685,0,0,2.2718683169766685,21.535573110420103,20.699616937749624) " id="svg_35"/>
   <g stroke="null" transform="matrix(2.2718683169766685,0,0,2.2718683169766685,21.535573110420103,20.699616937749624) " id="svg_36"/>
   <g stroke="null" transform="matrix(2.2718683169766685,0,0,2.2718683169766685,21.535573110420103,20.699616937749624) " id="svg_37"/>
   <g stroke="null" transform="matrix(2.2718683169766685,0,0,2.2718683169766685,21.535573110420103,20.699616937749624) " id="svg_38"/>
   <g stroke="null" transform="matrix(2.2718683169766685,0,0,2.2718683169766685,21.535573110420103,20.699616937749624) " id="svg_39"/>
   <g stroke="null" transform="matrix(2.2718683169766685,0,0,2.2718683169766685,21.535573110420103,20.699616937749624) " id="svg_40"/>
   <g stroke="null" transform="matrix(2.2718683169766685,0,0,2.2718683169766685,21.535573110420103,20.699616937749624) " id="svg_41"/>
   <g stroke="null" transform="matrix(2.2718683169766685,0,0,2.2718683169766685,21.535573110420103,20.699616937749624) " id="svg_42"/>
   <g stroke="null" transform="matrix(2.2718683169766685,0,0,2.2718683169766685,21.535573110420103,20.699616937749624) " id="svg_43"/>
   <g stroke="null" transform="matrix(2.2718683169766685,0,0,2.2718683169766685,21.535573110420103,20.699616937749624) " id="svg_44"/>
   <g stroke="null" transform="matrix(2.2718683169766685,0,0,2.2718683169766685,21.535573110420103,20.699616937749624) " id="svg_45"/>
   <g stroke="null" transform="matrix(2.2718683169766685,0,0,2.2718683169766685,21.535573110420103,20.699616937749624) " id="svg_46"/>
  </g>
 </g>
</svg>